<?xml version="1.0" encoding="UTF-8" standalone="no"?>
<!-- Created with Inkscape (http://www.inkscape.org/) -->

<svg
   xmlns:dc="http://purl.org/dc/elements/1.1/"
   xmlns:cc="http://creativecommons.org/ns#"
   xmlns:rdf="http://www.w3.org/1999/02/22-rdf-syntax-ns#"
   xmlns:svg="http://www.w3.org/2000/svg"
   xmlns="http://www.w3.org/2000/svg"
   xmlns:sodipodi="http://sodipodi.sourceforge.net/DTD/sodipodi-0.dtd"
   xmlns:inkscape="http://www.inkscape.org/namespaces/inkscape"
   id="svg4361"
   sodipodi:docname="pink-ponies.svg"
   viewBox="0 0 318.43 304"
   version="1.1"
   inkscape:version="0.91 r13725">
  <title
     id="title4478">Toy Horse</title>
  <defs
     id="defs4363">
    <linearGradient
       id="linearGradient5252"
       y2="218.71"
       gradientUnits="userSpaceOnUse"
       x2="296.73"
       y1="193.07"
       x1="291.08"
       inkscape:collect="always">
      <stop
         id="stop5248"
         style="stop-color:#f4d000 icc-color(Fogra27L-CMYK-Coated-Press, 0.05, 0.12, 1, 0.03)"
         offset="0" />
      <stop
         id="stop5254"
         style="stop-color:#f4d000"
         offset=".80860" />
      <stop
         id="stop5250"
         style="stop-color:#eaa000 icc-color(Fogra27L-CMYK-Coated-Press, 0.05, 0.40000001, 1, 0.03)"
         offset="1" />
    </linearGradient>
  </defs>
  <sodipodi:namedview
     id="base"
     bordercolor="#666666"
     inkscape:pageshadow="2"
     inkscape:window-y="18"
     fit-margin-left="2"
     pagecolor="#ffffff"
     fit-margin-top="2"
     inkscape:window-maximized="1"
     inkscape:zoom="1.7746094"
     inkscape:window-x="0"
     inkscape:window-height="715"
     showgrid="false"
     borderopacity="1.0"
     inkscape:current-layer="layer1"
     inkscape:cx="108.69052"
     inkscape:cy="150.74797"
     fit-margin-right="2"
     fit-margin-bottom="2"
     inkscape:window-width="1366"
     inkscape:pageopacity="0.0"
     inkscape:document-units="px" />
  <g
     id="layer1"
     inkscape:label="Layer 1"
     inkscape:groupmode="layer"
     transform="translate(-144.45 -151.34)">
    <g
       id="g5472"
       transform="matrix(2.4885 0 0 2.4885 -438.84 -225.54)">
      <g
         id="g5190">
        <path
           id="path5041"
           sodipodi:nodetypes="csccccc"
           style="color:#000000;fill:#eaa000 icc-color(Fogra27L-CMYK-Coated-Press, 0.05, 0.40000001, 1, 0.03)"
           inkscape:connector-curvature="0"
           d="m274.14 197.48c-9.0271-22.456-22.984-15.732-30.57-12.524-3.2464 1.3731-3.1557 4.1286-1.1834 7.7904-3.1282 0.18463-15.096 19.106 1.0848 15.975 0.80282 12.463 8.1062 14.349 11.735 5.0293 11.665 4.3584-0.97797-24.977 14.595-14.595z" />
        <path
           id="path5149"
           sodipodi:nodetypes="csc"
           style="color:#000000;fill:#c44615 icc-color(Fogra27L-CMYK-Coated-Press, 0.0130312, 0.78667885, 0.97860688, 0.19834711)"
           inkscape:connector-curvature="0"
           d="m246.93 190.08c-6.1684 4.0463-3.5589 12.79-5.5223 13.313-4.2161 1.1229-2.5026-9.2882 5.5223-13.313z" />
        <path
           id="path5152"
           d="m262.71 185.47c-6.5884-3.3189-12.856 3.3128-14.29 1.8739-3.0802-3.0901 6.7925-6.8114 14.29-1.8739z"
           sodipodi:nodetypes="csc"
           style="color:#000000;fill:#c44615 icc-color(Fogra27L-CMYK-Coated-Press, 0.0130312, 0.78667885, 0.97860688, 0.19834711)"
           inkscape:connector-curvature="0" />
        <path
           id="path5154"
           d="m247.73 202.04c-3.3189 6.5884 3.3128 12.856 1.8739 14.29-3.0898 3.0805-6.8114-6.7925-1.8739-14.29z"
           sodipodi:nodetypes="csc"
           style="color:#000000;fill:#c44615 icc-color(Fogra27L-CMYK-Coated-Press, 0.0130312, 0.78667885, 0.97860688, 0.19834711)"
           inkscape:connector-curvature="0" />
        <path
           id="path5156"
           sodipodi:nodetypes="csc"
           style="color:#000000;fill:#c44615 icc-color(Fogra27L-CMYK-Coated-Press, 0.0130312, 0.78667885, 0.97860688, 0.19834711)"
           inkscape:connector-curvature="0"
           d="m258.67 192.02c-7.0055 2.3119-5.3753 7.3698-7.3992 7.1895-2.2922-0.20423-1.394-5.379 7.3992-7.1895z" />
        <path
           id="path5158"
           d="m269.54 194.15c-5.5049-4.911-9.0701-0.97024-9.9259-2.8131-0.96922-2.0872 3.9614-3.8968 9.9259 2.8131z"
           sodipodi:nodetypes="csc"
           style="color:#000000;fill:#c44615 icc-color(Fogra27L-CMYK-Coated-Press, 0.0130312, 0.78667885, 0.97860688, 0.19834711)"
           inkscape:connector-curvature="0" />
        <path
           id="path5160"
           sodipodi:nodetypes="ccc"
           style="color:#000000;fill:#c44615 icc-color(Fogra27L-CMYK-Coated-Press, 0.0130312, 0.78667885, 0.97860688, 0.19834711)"
           inkscape:connector-curvature="0"
           d="m252.55 207.34c1.6363 1.4708 3.4996 2.6313 6.9029 1.5778-2.9449 2.5509-5.5356 2.6883-6.9029-1.5778z" />
      </g>
      <path
         id="path4261"
         d="m266.37 246.55c1.9485-9.4168 5.9441-14.091 11.505-20.291-6.0866-3.6854-10.566-11.455-10.931-18.612-0.30327-5.9383 1.3967-13.965 13.581-14.51 9.072-0.40589 16.277 2.6251 22.374-3.2651 7.5128-7.2582 11.057-21.409 32.225-27.974 7.496-2.3247 25.247 1.4059 26.401 13.127 0.34802 3.5334-6.6429 0.12654-6.7032 1.6975-0.13758 3.587 3.2767 6.5586 3.3127 11.394 0.0817 10.967-5.6038 18.151-15.759 17.433-8.6027-0.60865-5.5235-15.78-9.3438-17.851-2.5272-0.19694-4.553 5.2683-6.3819 11.105-0.77799 2.483-0.84878 3.825-0.30566 6.048 1.7235 7.0543-1.9773 11.768-6.4914 16.317 5.4934 7.9402 15.6 9.775 23.848 12.621l-11.575 12.621c-8.6308-5.3234-14.631-12.345-18.06-21.198-9.1473 5.094-19.515 6.5973-29.356 4.2535-4.4288 4.5452-3.4953 13.421-2.7195 25.242z"
         sodipodi:nodetypes="ccsssssssscssccccccc"
         style="color:#000000;fill:#c44615 icc-color(Fogra27L-CMYK-Coated-Press, 0.0130312, 0.78667885, 0.97860688, 0.19834711)"
         inkscape:connector-curvature="0" />
      <path
         id="path5032"
         d="m335.47 231.16-8.125 11.938c1.4899 1.1748 3.0897 2.2692 4.7812 3.3125l11.562-12.625c-2.6254-0.90606-5.4252-1.6943-8.2188-2.625zm-68.438 12.781c-0.2363 0.83719-0.46339 1.693-0.65625 2.625l15.63 8.16c-0.17968-2.7379-0.37204-5.3139-0.5-7.7188l-14.469-3.0625z"
         style="fill:#000200 icc-color(Fogra27L-CMYK-Coated-Press, 1, 1, 1, 0.99710077)"
         inkscape:connector-curvature="0" />
      <g
         id="g5043">
        <path
           id="path5151"
           sodipodi:nodetypes="ccccc"
           style="fill:#e01c16 icc-color(Fogra27L-CMYK-Coated-Press, 0.00006104, 0.94995041, 0.99688716, 0.02415503)"
           inkscape:connector-curvature="0"
           d="m258.09 238.41c-0.86599-1.0521-5.7185 3.6158-4.9498 5.4801 18.107 41.304 90.375 39.421 98.995-12.551 0.60881-3.9189-5.2611-4.9589-7.7782-1.0607-21.667 34.218-70.504 28.593-86.267 8.1317z" />
        <path
           id="path5153"
           style="color:#000000;fill:#f4d000 icc-color(Fogra27L-CMYK-Coated-Press, 0.05, 0.12, 1, 0.03)"
           inkscape:connector-curvature="0"
           d="m348.78 227.81c-1.5614-0.0125-3.305 0.76327-4.4062 2.4688-21.667 34.218-70.518 28.586-86.281 8.125-0.49722-0.60405-2.2867 0.69611-3.5938 2.25l0.6875 4.5625 3.9688-0.4375 0.0937 5.5625 6.4375-1.5938v8.5625l8.5938-4.8438 0.96875 11.562 7.9375-7.8438 3.1875 12.375 7.6875-10.969 6.0312 12.281 5.6562-13.344 8.0312 12.375 2.0312-14.219 9.7188 10.312 0.53125-14.562 9.2812 6.9688-1.25-11.938 9.8125 3.0312-4.2188-8.1562 8.3125-0.53125-2.3125-6.3438 6.2188-1c0.0699-0.37515 0.15564-0.74449 0.21875-1.125 0.34246-2.2044-1.3362-3.5152-3.3438-3.5312z" />
      </g>
      <path
         id="path5047"
         d="m303.91 188.84c-0.32489 0.35433-0.66093 0.70367-1 1.0312-6.0968 5.8902-13.303 2.8441-22.375 3.25-0.4529 0.0203-0.85688 0.0846-1.2812 0.125-0.72818 11.222-0.20579 23.543 15.219 26.344l2.3125 10.844c0.35606 1.4858 6.6433 0.66914 6.1875-0.9375l-3.2812-11.25c7.6108-3.2824 12.834-15 4.2188-29.406z"
         sodipodi:nodetypes="csscccccc"
         style="color:#000000;fill:url(#linearGradient5252)"
         inkscape:connector-curvature="0" />
      <path
         id="path5055"
         d="m301.97 190.69c-5.2243 4.2186-11.264 2.6024-18.562 2.4375 0.0556 7.9887 2.2507 20.601 11.812 19.719 9.7031-0.89542 9.5895-13.933 6.75-22.156z"
         style="color:#000000;fill:#e01c16 icc-color(Fogra27L-CMYK-Coated-Press, 0.00006104, 0.94995041, 0.99688716, 0.02415503)"
         inkscape:connector-curvature="0" />
      <path
         id="rect5199"
         d="m281.24 194.36c0.5779 0 1.0431 0.46524 1.0431 1.0431 0 0.5779-0.46524 1.0431-1.0431 1.0431-0.57791 0-1.0432-0.46524-1.0432-1.0431 0-0.5779 0.46524-1.0431 1.0432-1.0431z"
         style="color:#000000;fill:#e01c16 icc-color(Fogra27L-CMYK-Coated-Press, 0.00006104, 0.94995041, 0.99688716, 0.02415503)"
         inkscape:connector-curvature="0" />
      <path
         id="rect5218"
         d="m281.54 198.66c0.5779 0 1.0432 0.46524 1.0432 1.0431 0 0.5779-0.46525 1.0432-1.0432 1.0432-0.5779 0-1.0431-0.46525-1.0431-1.0432 0-0.5779 0.46524-1.0431 1.0431-1.0431z"
         style="color:#000000;fill:#e01c16 icc-color(Fogra27L-CMYK-Coated-Press, 0.00006104, 0.94995041, 0.99688716, 0.02415503)"
         inkscape:connector-curvature="0" />
      <path
         id="rect5220"
         d="m281.96 202.39c0.5779 0 1.0431 0.46524 1.0431 1.0431 0 0.5779-0.46524 1.0431-1.0431 1.0431-0.57791 0-1.0432-0.46524-1.0432-1.0431 0-0.5779 0.46524-1.0431 1.0432-1.0431z"
         style="color:#000000;fill:#e01c16 icc-color(Fogra27L-CMYK-Coated-Press, 0.00006104, 0.94995041, 0.99688716, 0.02415503)"
         inkscape:connector-curvature="0" />
      <path
         id="rect5222"
         d="m282.88 206.39c0.5779 0 1.0431 0.46524 1.0431 1.0431 0 0.5779-0.46524 1.0431-1.0431 1.0431-0.5779 0-1.0431-0.46524-1.0431-1.0431 0-0.5779 0.46524-1.0431 1.0431-1.0431z"
         style="color:#000000;fill:#e01c16 icc-color(Fogra27L-CMYK-Coated-Press, 0.00006104, 0.94995041, 0.99688716, 0.02415503)"
         inkscape:connector-curvature="0" />
      <path
         id="rect5224"
         d="m296.58 214.62c0.57791 0 1.0432 0.46524 1.0432 1.0431 0 0.57791-0.46524 1.0432-1.0432 1.0432-0.5779 0-1.0431-0.46524-1.0431-1.0432 0-0.5779 0.46524-1.0431 1.0431-1.0431z"
         style="color:#000000;fill:#e01c16 icc-color(Fogra27L-CMYK-Coated-Press, 0.00006104, 0.94995041, 0.99688716, 0.02415503)"
         inkscape:connector-curvature="0" />
      <path
         id="rect5226"
         d="m292.29 214.42c0.5779 0 1.0431 0.46524 1.0431 1.0431 0 0.5779-0.46524 1.0431-1.0431 1.0431-0.5779 0-1.0432-0.46524-1.0432-1.0431 0-0.5779 0.46525-1.0431 1.0432-1.0431z"
         style="color:#000000;fill:#e01c16 icc-color(Fogra27L-CMYK-Coated-Press, 0.00006104, 0.94995041, 0.99688716, 0.02415503)"
         inkscape:connector-curvature="0" />
      <path
         id="rect5228"
         d="m287.99 212.35c0.5779 0 1.0431 0.46524 1.0431 1.0431 0 0.5779-0.46524 1.0431-1.0431 1.0431-0.5779 0-1.0431-0.46524-1.0431-1.0431 0-0.5779 0.46524-1.0431 1.0431-1.0431z"
         style="color:#000000;fill:#e01c16 icc-color(Fogra27L-CMYK-Coated-Press, 0.00006104, 0.94995041, 0.99688716, 0.02415503)"
         inkscape:connector-curvature="0" />
      <path
         id="rect5230"
         d="m284.78 209.73c0.5779 0 1.0431 0.46524 1.0431 1.0432 0 0.5779-0.46524 1.0431-1.0431 1.0431-0.5779 0-1.0431-0.46524-1.0431-1.0431 0-0.57791 0.46524-1.0432 1.0431-1.0432z"
         style="color:#000000;fill:#e01c16 icc-color(Fogra27L-CMYK-Coated-Press, 0.00006104, 0.94995041, 0.99688716, 0.02415503)"
         inkscape:connector-curvature="0" />
      <path
         id="rect5232"
         d="m300.68 212.64c0.5779 0 1.0431 0.46524 1.0431 1.0431 0 0.5779-0.46524 1.0432-1.0431 1.0432-0.57791 0-1.0432-0.46525-1.0432-1.0432 0-0.5779 0.46524-1.0431 1.0432-1.0431z"
         style="color:#000000;fill:#e01c16 icc-color(Fogra27L-CMYK-Coated-Press, 0.00006104, 0.94995041, 0.99688716, 0.02415503)"
         inkscape:connector-curvature="0" />
      <path
         id="rect5234"
         d="m303.47 209.43c0.57791 0 1.0432 0.46524 1.0432 1.0431 0 0.5779-0.46524 1.0432-1.0432 1.0432-0.5779 0-1.0431-0.46525-1.0431-1.0432 0-0.5779 0.46524-1.0431 1.0431-1.0431z"
         style="color:#000000;fill:#e01c16 icc-color(Fogra27L-CMYK-Coated-Press, 0.00006104, 0.94995041, 0.99688716, 0.02415503)"
         inkscape:connector-curvature="0" />
      <path
         id="rect5236"
         d="m305.17 205.73c0.5779 0 1.0431 0.46524 1.0431 1.0432 0 0.5779-0.46524 1.0431-1.0431 1.0431-0.5779 0-1.0432-0.46524-1.0432-1.0431 0-0.57791 0.46525-1.0432 1.0432-1.0432z"
         style="color:#000000;fill:#e01c16 icc-color(Fogra27L-CMYK-Coated-Press, 0.00006104, 0.94995041, 0.99688716, 0.02415503)"
         inkscape:connector-curvature="0" />
      <path
         id="rect5238"
         d="m305.77 201.73c0.5779 0 1.0431 0.46524 1.0431 1.0432 0 0.5779-0.46524 1.0431-1.0431 1.0431-0.5779 0-1.0431-0.46524-1.0431-1.0431 0-0.57791 0.46524-1.0432 1.0431-1.0432z"
         style="color:#000000;fill:#e01c16 icc-color(Fogra27L-CMYK-Coated-Press, 0.00006104, 0.94995041, 0.99688716, 0.02415503)"
         inkscape:connector-curvature="0" />
      <path
         id="rect5240"
         d="m305.57 197.73c0.5779 0 1.0431 0.46524 1.0431 1.0432 0 0.5779-0.46524 1.0431-1.0431 1.0431-0.5779 0-1.0432-0.46524-1.0432-1.0431 0-0.57791 0.46525-1.0432 1.0432-1.0432z"
         style="color:#000000;fill:#e01c16 icc-color(Fogra27L-CMYK-Coated-Press, 0.00006104, 0.94995041, 0.99688716, 0.02415503)"
         inkscape:connector-curvature="0" />
      <path
         id="rect5242"
         d="m305.08 194.22c0.5779 0 1.0431 0.46524 1.0431 1.0431 0 0.5779-0.46524 1.0432-1.0431 1.0432-0.57791 0-1.0432-0.46525-1.0432-1.0432 0-0.5779 0.46524-1.0431 1.0432-1.0431z"
         style="color:#000000;fill:#e01c16 icc-color(Fogra27L-CMYK-Coated-Press, 0.00006104, 0.94995041, 0.99688716, 0.02415503)"
         inkscape:connector-curvature="0" />
      <path
         id="rect5244"
         d="m303.7 190.52c0.5779 0 1.0432 0.46524 1.0432 1.0432 0 0.5779-0.46525 1.0431-1.0432 1.0431-0.5779 0-1.0431-0.46524-1.0431-1.0431 0-0.57791 0.46524-1.0432 1.0431-1.0432z"
         style="color:#000000;fill:#e01c16 icc-color(Fogra27L-CMYK-Coated-Press, 0.00006104, 0.94995041, 0.99688716, 0.02415503)"
         inkscape:connector-curvature="0" />
      <path
         id="path5382"
         d="m343.35 162.94s5.8586-8.1177 9.1488-6.4362c1.3314 0.68045-2.75 8.5-2.75 8.5z"
         sodipodi:nodetypes="cscc"
         style="color:#000000;fill:#c44615 icc-color(Fogra27L-CMYK-Coated-Press, 0.0130312, 0.78667885, 0.97860688, 0.19834711)"
         inkscape:connector-curvature="0" />
      <path
         id="path5259"
         d="m340.25 161.25c-1.9495-0.003-3.7195 0.22036-5.125 0.65625-14.488 4.4933-20.694 12.51-25.594 19.469-10.199 12.558 5.6153 19.187 6.4688 7.125 5.7038 4.7785 9.5268 4.1238 9.25-8.375 3.0364 3.0554 5.7868 4.0373 7.5-2.5l5.202 10.97-3.2576 1.8786c0.20663 0.67737 0.32376 1.368 0.44554 2.0595 5.6052-3.5495 16.126-5.2693 22.954-5.0015-0.21652-2.3404-0.52359-3.1115-1.3998-4.9682-4.7467 0.6687-10.901 1.249-16.006 4.3744l-5.68-11.49c1.3512-3.6406 4.3789-6.1815 5.727-4.2829 1.7168 2.4179 3.8428 2.9935 5.9278 2.8378 3.9244-0.29318 6.1264 4.9236 7.4077 4.5702l0.90625-0.25c-0.0738-0.47064-0.11979-1.1485-0.15625-1.5938 0.0603-1.571 7.0668 1.8458 6.7188-1.6875-0.94-9.53-12.83-13.78-21.28-13.79z"
         sodipodi:nodetypes="cscccccccccccsssccsc"
         style="color:#000000;fill:#eaa000 icc-color(Fogra27L-CMYK-Coated-Press, 0.05, 0.40000001, 1, 0.03)"
         inkscape:connector-curvature="0" />
      <path
         id="path5335"
         d="m335 175.44-2.25 2.1875 5.1875 10.969-3.25 1.875c0.20663 0.67737 0.31572 1.371 0.4375 2.0625 5.6052-3.5495 16.141-5.2678 22.969-5-0.21652-2.3404-0.53009-3.1121-1.4062-4.9688-4.7467 0.6687-10.894 1.2496-16 4.375l-5.69-11.51z"
         style="color:#000000;fill:#f4d000 icc-color(Fogra27L-CMYK-Coated-Press, 0.05, 0.12, 1, 0.03)"
         inkscape:connector-curvature="0" />
      <path
         id="rect5268"
         d="m339.89 186.01c1.552 0 2.8016 1.2496 2.8016 2.8016s-1.2496 2.8016-2.8016 2.8016-2.8016-1.2496-2.8016-2.8016 1.2496-2.8016 2.8016-2.8016z"
         style="color:#000000;fill:#000200 icc-color(Fogra27L-CMYK-Coated-Press, 1, 1, 1, 1)"
         inkscape:connector-curvature="0" />
      <path
         id="path5351"
         d="m309.31 184.05c0.2934 2.4248 0.65158 6.1913 4.207 6.4533-6.3289 3.3659-5.3035-3.2095-4.207-6.4533z"
         sodipodi:nodetypes="ccc"
         style="color:#000000;fill:#c44615 icc-color(Fogra27L-CMYK-Coated-Press, 0.0130312, 0.78667885, 0.97860688, 0.19834711)"
         inkscape:connector-curvature="0" />
      <path
         id="path5359"
         sodipodi:nodetypes="ccc"
         style="color:#000000;fill:#c44615 icc-color(Fogra27L-CMYK-Coated-Press, 0.0130312, 0.78667885, 0.97860688, 0.19834711)"
         inkscape:connector-curvature="0"
         d="m325.68 169.93c0.2934 2.4248 0.65158 6.1913 4.207 6.4533-6.3289 3.3659-5.3035-3.2095-4.207-6.4533z" />
      <path
         id="path5361"
         d="m316.12 180.24c0.2934 2.4248 0.41476 5.5805 3.207 6.4533-4.8289 0.3034-4.3035-3.2095-3.207-6.4533z"
         sodipodi:nodetypes="ccc"
         style="color:#000000;fill:#c44615 icc-color(Fogra27L-CMYK-Coated-Press, 0.0130312, 0.78667885, 0.97860688, 0.19834711)"
         inkscape:connector-curvature="0" />
      <path
         id="path5363"
         sodipodi:nodetypes="ccc"
         style="color:#000000;fill:#c44615 icc-color(Fogra27L-CMYK-Coated-Press, 0.0130312, 0.78667885, 0.97860688, 0.19834711)"
         inkscape:connector-curvature="0"
         d="m321.76 181.54c-0.1464 1.471 0.24393 4.0465-1.8886 4.8016 4.0474 0.23911 3.0982-2.649 1.8886-4.8016z" />
      <path
         id="path5376"
         d="m342.93 163.9c1.0963 2.1827 2.7073 5.606 6.1417 4.65-4.8174 5.3082-6.0765-1.2265-6.1417-4.65z"
         sodipodi:nodetypes="ccc"
         style="color:#000000;fill:#c44615 icc-color(Fogra27L-CMYK-Coated-Press, 0.0130312, 0.78667885, 0.97860688, 0.19834711)"
         inkscape:connector-curvature="0" />
      <path
         id="path5378"
         sodipodi:nodetypes="ccsc"
         style="color:#000000;fill:#c44615 icc-color(Fogra27L-CMYK-Coated-Press, 0.0130312, 0.78667885, 0.97860688, 0.19834711)"
         inkscape:connector-curvature="0"
         d="m349.07 168.55c2.28 0.87602 5.1253 2.2463 7.2037 0.18763-1.9431 4.2991-5.0435 2.3868-7.3614-0.0167-0.0593-0.0615 0.15769-0.1709 0.15769-0.1709z" />
      <path
         id="path5380"
         sodipodi:nodetypes="ccc"
         style="color:#000000;fill:#c44615 icc-color(Fogra27L-CMYK-Coated-Press, 0.0130312, 0.78667885, 0.97860688, 0.19834711)"
         inkscape:connector-curvature="0"
         d="m341.72 167.22c0.43722 0.87057 1.0798 2.236 2.4496 1.8547-1.9214 2.1172-2.4236-0.4892-2.4496-1.8547z" />
      <path
         id="path5401"
         d="m340.25 174.25c0-0.0668 0.34911-2.8942 0.6116-6.501 1.9153-6.1817 0.87149-15.525-1.9866-15.499-3.2604 0.0293-3.8268 9.3388-2.3037 15.687 0.29518 3.4709 0.67758 6.1771 0.67873 6.3132z"
         sodipodi:nodetypes="ccsccc"
         style="color:#000000;fill:#c44615 icc-color(Fogra27L-CMYK-Coated-Press, 0.0130312, 0.78667885, 0.97860688, 0.19834711)"
         inkscape:connector-curvature="0" />
      <path
         id="path5409"
         d="m340.84 168.12-4.25 0.1875c0.0907 1.0379 0.18954 1.7854 0.28125 2.625l3.7188-0.0312c0.0849-0.88292 0.1672-1.6833 0.25-2.7812z"
         style="color:#000000;fill:#f4d000 icc-color(Fogra27L-CMYK-Coated-Press, 0.05, 0.12, 1, 0.03)"
         inkscape:connector-curvature="0" />
      <rect
         id="rect5434"
         ry="1.9375"
         style="color:#000000;fill:#000200 icc-color(Fogra27L-CMYK-Coated-Press, 1, 1, 1, 1)"
         rx="1.5625"
         transform="matrix(.92055 -.39062 .39062 .92055 0 0)"
         height="3.875"
         width="3.125"
         y="297.28"
         x="244.55" />
      <path
         id="path5436"
         d="m335.89 197.09c0.13595 0.65277 0.24041 1.3158 0.41854 1.9699 2.0232 3.5469 5.896 5.8271 9.3177 6.4378 0.87188-0.0182 1.0223-0.12659 1.8073-0.31275l-0.0156-0.14062c-6.0015-0.7384-9.6614-3.8691-11.395-8.0078z"
         sodipodi:nodetypes="ccccccc"
         style="block-progression:tb;text-indent:0;color:#000000;text-transform:none;fill:#000000"
         inkscape:connector-curvature="0" />
      <path
         id="path5453"
         style="color:#000000;fill:#e01c16 icc-color(Fogra27L-CMYK-Coated-Press, 0.00006104, 0.94995041, 0.99688716, 0.02415503)"
         inkscape:connector-curvature="0"
         d="m339.89 186.25c1.42 0 2.5633 1.1432 2.5633 2.5633 0 1.42-1.1432 2.5633-2.5633 2.5633-1.42 0-2.5633-1.1432-2.5633-2.5633 0-1.42 1.1432-2.5633 2.5633-2.5633z" />
    </g>
    <path
       style="fill:#ff00ff"
       d="m 221.48382,218.22708 c -9.13476,-9.48281 -13.15413,-15.13302 -18.90893,-26.5812 -2.53485,-5.04264 -4.68084,-8.02901 -5.50183,-7.65638 -5.36866,2.43676 -21.03668,8.46832 -23.38765,9.00332 -2.80481,0.63827 -2.97946,0.32507 -6.4803,-11.62145 -3.7698,-12.86434 -4.25578,-15.83194 -2.59268,-15.83194 2.58713,0 12.346,-10.53084 15.30549,-16.51623 2.64183,-5.34295 3.35246,-8.4793 3.76152,-16.60152 0.6027,-11.96696 -0.91239,-19.68181 -6.07406,-30.92912 l -3.79068,-8.259935 2.4338,-3.291901 c 1.3386,-1.810544 2.52972,-3.291899 2.64693,-3.291899 0.11722,0 -0.0432,2.273788 -0.35641,5.052862 -1.04365,9.259273 4.18388,16.383233 11.98673,16.335243 2.24086,-0.0138 5.16064,-0.9013 6.48839,-1.97227 2.68874,-2.16872 6.03847,-8.219362 6.03847,-10.907304 0,-2.304 0.29991,-2.239836 5.25822,1.124961 2.94624,1.999374 5.40894,2.769496 8.1089,2.53577 5.70375,-0.493756 8.02443,-4.356561 9.57087,-15.930842 l 1.2927,-9.675187 3.67578,2.329261 c 5.15103,3.264081 8.64429,2.118161 11.71633,-3.84339 l 2.45893,-4.771754 5.48229,11.690976 c 5.1921,11.072164 5.38939,11.832746 3.72734,14.369359 -2.26134,3.451237 -4.39256,3.401864 -6.00595,-0.139138 -1.25436,-2.753025 -4.09325,-3.612442 -6.45791,-1.955007 -2.49008,1.745339 -5.96388,7.951788 -9.60998,17.169625 -3.67711,9.29624 -3.79023,10.0629 -3.8245,25.9212 -0.0411,19.01389 -1.23179,22.62661 -10.96855,33.28018 l -5.62114,6.15041 3.03809,3.67013 c 6.40582,7.73849 16.76057,14.41598 30.13965,19.43626 2.94431,1.1048 5.35329,2.19731 5.35329,2.42778 0,1.42608 -18.74258,27.44994 -19.76965,27.44994 -0.69442,0 -4.8045,-3.67687 -9.1335,-8.17081 z"
       id="path3490"
       inkscape:connector-curvature="0"
       transform="translate(144.45,151.34)" />
    <path
       style="fill:#ff00ff"
       d="m 97.114634,233.24367 c -10.991137,-2.38204 -14.169732,-3.48368 -14.464255,-5.01302 -0.916271,-4.75781 10.177829,-23.80026 20.943171,-35.94788 l 4.78923,-5.40417 -8.24513,-8.13879 c -18.787596,-18.54529 -24.237914,-45.41 -12.738268,-62.78713 3.060496,-4.62473 11.595501,-9.46161 19.012248,-10.77447 l 4.22628,-0.7481 0.009,9.98675 c 0.0163,19.14616 3.70098,32.68622 11.21922,41.22739 4.80674,5.46074 15.12314,11.51614 21.69712,12.73552 2.30237,0.42706 4.63264,1.35736 5.17839,2.06733 0.54574,0.70998 1.87792,5.60168 2.96039,10.87045 1.08248,5.26876 2.23047,10.72066 2.5511,12.11534 0.56741,2.46815 0.34075,2.53577 -8.49981,2.53577 -4.99553,0 -11.72348,-0.56633 -14.951,-1.25851 -5.56932,-1.19441 -5.97234,-1.12265 -7.91197,1.40876 -3.94537,5.14908 -5.69763,12.53387 -6.31549,26.6162 -0.71068,16.19801 1.43814,15.03761 -19.459734,10.50856 l -5.2e-5,0 z"
       id="path3492"
       inkscape:connector-curvature="0"
       transform="translate(144.45,151.34)" />
    <path
       style="fill:#ff00ff"
       d="m 272.92714,131.03502 c -10.98622,-3.9602 -19.36993,-13.27617 -20.85405,-23.17299 -0.68216,-4.54898 -0.4732,-5.36744 1.77176,-6.93988 1.79413,-1.256652 3.93344,-1.592386 7.25008,-1.137791 4.09935,0.561881 4.99469,0.276541 6.956,-2.216865 2.66415,-3.386912 12.89453,-5.845863 29.49091,-7.088367 l 10.5271,-0.788121 -0.75194,6.649721 c -1.72715,15.273843 -7.08849,26.184643 -15.88909,32.335673 -5.6884,3.97581 -11.83911,4.75995 -18.50077,2.35862 z"
       id="path3494"
       inkscape:connector-curvature="0"
       transform="translate(144.45,151.34)" />
    <path
       style="fill:#ff00ff"
       d="m 264.21954,85.291353 c -1.92272,-2.379704 -12.70529,-24.398435 -12.70869,-25.95201 -0.002,-0.78608 1.1385,-3.584641 2.53384,-6.219023 2.10889,-3.981584 3.09873,-4.789787 5.86627,-4.789787 2.19586,0 4.55526,1.188244 6.93035,3.490274 2.85542,2.767575 4.96676,3.655833 10.19673,4.28984 7.75492,0.940096 9.78561,1.934876 14.98758,7.342 2.13612,2.220367 4.74907,4.037032 5.80655,4.037032 1.07413,0 2.41785,1.367813 3.04467,3.099274 0.61709,1.7046 1.44359,3.887504 1.83667,4.850898 0.59175,1.450324 -0.99001,1.992898 -9.19558,3.154273 -8.33098,1.179122 -18.05256,3.912293 -26.32702,7.401703 -0.98544,0.415566 -2.32255,0.09856 -2.97137,-0.704474 z m 10.84903,-13.083259 c 1.64855,-3.080345 -0.96992,-7.535937 -4.42873,-7.535937 -2.21438,0 -2.85857,0.648283 -3.14742,3.167427 -0.64443,5.620185 5.12566,8.947296 7.57615,4.36851 z"
       id="path3496"
       inkscape:connector-curvature="0"
       transform="translate(144.45,151.34)" />
    <path
       style="fill:#ff00ff"
       d="m 254.37827,39.596217 c -1.59745,-4.157038 -1.99028,-20.163197 -0.65247,-26.585538 1.44935,-6.9578278 4.52292,-11.2597115 7.28693,-10.1990603 4.38674,1.6833512 7.05217,20.2262433 4.80156,33.4035723 l -0.91432,5.353291 -4.8819,0 c -3.60938,0 -5.07946,-0.514097 -5.6398,-1.972265 z"
       id="path3498"
       inkscape:connector-curvature="0"
       transform="translate(144.45,151.34)" />
    <path
       style="fill:#f184c5;fill-opacity:0.97222221"
       d="m 281.17634,26.524974 c -2.59127,-0.713965 -5.02001,-1.613718 -5.3972,-1.999452 -1.07426,-1.098582 10.28681,-10.791197 13.63322,-11.631094 4.89259,-1.227961 5.53211,0.745185 2.69788,8.323858 -2.76185,7.385124 -2.98946,7.495592 -10.9339,5.306688 z"
       id="path3500"
       inkscape:connector-curvature="0"
       transform="translate(144.45,151.34)" />
    <path
       style="fill:#626000;fill-opacity:0.97222221"
       d="m 187.70741,107.18828 c -1.37351,-0.21999 -3.78249,-1.92736 -5.35329,-3.79414 -2.33098,-2.77022 -2.85599,-4.583743 -2.85599,-9.865437 0,-5.49524 0.63744,-7.51597 4.22629,-13.397639 15.35532,-25.16548 35.03029,-41.948357 60.34941,-51.478449 l 7.46085,-2.808254 0.6095,3.91753 c 0.33523,2.154642 0.88607,5.692569 1.22408,7.862061 0.47863,3.07196 1.16422,3.97345 3.09928,4.075264 1.90706,0.100337 2.02619,0.250555 0.51243,0.646142 -1.35722,0.35468 -1.97129,1.631853 -1.96913,4.095547 0.004,4.497437 -4.12957,12.790918 -8.09109,16.234014 -1.65903,1.441921 -3.33252,4.060893 -3.71887,5.819937 -0.92765,4.223554 -4.57489,8.017038 -7.67797,7.985831 -1.37053,-0.01378 -3.75975,-1.016813 -5.30939,-2.228957 -1.54964,-1.212144 -3.12469,-2.215173 -3.50011,-2.228957 -0.37542,-0.01378 -0.97075,3.785206 -1.32296,8.4422 -0.35221,4.656992 -1.56651,10.362473 -2.69844,12.678846 -1.7511,3.58342 -2.67679,4.263065 -6.20634,4.556721 -2.93309,0.244031 -5.47584,-0.492921 -8.68018,-2.515735 -4.86221,-3.069378 -5.11536,-2.981328 -6.24053,2.170601 -1.48942,6.819814 -7.23143,10.894164 -13.85755,9.832874 z m 6.01665,-8.194952 3.10258,-1.179598 -3.44547,-2.095321 c -3.31988,-2.018938 -5.99398,-7.145772 -5.99398,-11.491777 0,-3.401235 -1.91463,-2.374006 -2.67664,1.43606 -1.23828,6.191397 -0.76399,9.942592 1.54963,12.256219 2.59175,2.591739 3.23099,2.683759 7.46388,1.074417 z m 15.81595,-12.493871 c -2.51291,-1.460725 -5.24769,-7.648427 -5.24769,-11.873426 0,-4.47042 -1.98396,-1.906006 -2.88402,3.727799 -0.61622,3.857222 -0.33331,5.077659 1.63283,7.043803 1.30801,1.30801 3.77287,2.362778 5.47747,2.343929 2.75062,-0.03042 2.86553,-0.170147 1.02141,-1.242105 z m 10.29833,-3.795162 c 0.18227,-1.859564 -0.43554,-4.395334 -1.37292,-5.635043 -1.62912,-2.15457 -1.7059,-2.083901 -1.74016,1.601771 -0.0197,2.120684 -0.9161,4.828462 -1.99197,6.017285 -1.89014,2.088582 -1.84262,2.148601 1.40876,1.779253 2.81017,-0.319226 3.41952,-0.939616 3.69629,-3.763266 z m 15.97203,-19.6752 c 1.32369,-0.837192 1.03266,-1.280639 -1.46327,-2.22959 -3.40003,-1.29269 -6.37617,-6.938887 -6.40486,-12.151021 -0.0133,-2.424264 -0.26151,-2.752019 -1.09412,-1.44496 -1.80594,2.83505 -2.50401,10.525462 -1.25318,13.805856 0.95932,2.515895 1.87646,3.096025 4.87244,3.082015 2.02987,-0.0095 4.43422,-0.487527 5.34299,-1.0623 z"
       id="path4302"
       inkscape:connector-curvature="0"
       transform="translate(144.45,151.34)" />
    <path
       style="fill:#fffd4a;fill-opacity:0.88194442"
       d="m 183.71175,103.83482 c -3.79884,-3.965132 -4.91946,-10.623286 -2.81403,-16.719405 4.20306,-12.169589 24.33873,-35.644092 39.0388,-45.512073 7.43683,-4.992262 23.22665,-12.82454 28.49746,-14.135698 2.92907,-0.728632 3.02611,-0.585462 3.79968,5.60595 0.43661,3.494524 1.41962,6.979458 2.18446,7.744298 2.15982,2.159821 -0.96413,12.52075 -5.63199,18.679157 -2.15741,2.84631 -4.90332,7.294839 -6.10202,9.885622 -3.1142,6.73082 -5.82278,7.878544 -11.54913,4.893803 -2.51527,-1.311033 -4.70828,-2.233297 -4.87335,-2.049476 -0.16508,0.18382 -0.80993,4.207722 -1.43301,8.942003 -1.58623,12.05253 -3.17122,14.972808 -8.36118,15.40514 -2.28278,0.190159 -5.67728,-0.443783 -7.54334,-1.40876 -5.2654,-2.722844 -6.67037,-2.231872 -8.02664,2.804929 -2.25726,8.3828 -11.68937,11.60145 -17.18571,5.86451 z m 12.40326,-5.25199 c 0.30772,-0.307714 -1.23341,-2.250397 -3.42473,-4.317074 -2.53897,-2.394559 -4.26891,-5.27519 -4.76907,-7.94128 -0.43168,-2.301027 -1.18132,-4.183686 -1.66587,-4.183686 -2.74695,0 -3.05679,11.869541 -0.40853,15.650452 1.52157,2.172355 2.52258,2.517218 5.77468,1.989476 2.16372,-0.351124 4.18581,-0.890174 4.49352,-1.197888 z m 12.79473,-13.50808 c -1.39564,-1.485597 -3.19339,-5.162462 -3.995,-8.170812 l -1.45746,-5.469729 -1.27299,3.172642 c -3.00138,7.480235 -0.1936,13.168982 6.49978,13.168982 l 2.76321,0 -2.53754,-2.701083 z m 10.9286,-2.370455 c 0.18227,-1.859564 -0.32488,-4.259109 -1.12701,-5.332322 -1.29554,-1.733381 -1.65893,-1.317879 -3.25395,3.720585 l -1.79555,5.671879 2.92255,-0.339559 c 2.32899,-0.270594 2.98986,-1.026239 3.25396,-3.720583 z m 16.39235,-19.353434 c 0.41678,-0.416786 -0.79326,-2.065036 -2.68899,-3.662778 -2.28645,-1.927051 -3.94676,-4.801966 -4.93201,-8.540029 l -1.48523,-5.635042 -1.27299,3.172641 c -1.59101,3.965221 -1.64246,10.372799 -0.10633,13.243074 0.83907,1.567823 2.3686,2.179926 5.44721,2.179926 2.3543,0 4.62155,-0.341007 5.03834,-0.757792 z"
       id="path4304"
       inkscape:connector-curvature="0"
       transform="translate(144.45,151.34)" />
    <path
       style="fill:#fffd4a;fill-opacity:0.88194442"
       d="m 293.12991,63.243794 c -6.22588,-5.682881 -8.06118,-6.586065 -15.3966,-7.576951 -10.22896,-1.381752 -16.14865,-8.561997 -12.57067,-15.247511 0.62637,-1.170387 1.46267,-5.226088 1.85845,-9.012667 l 0.71959,-6.884689 4.62185,0.710409 c 24.46054,3.759753 43.37848,18.100626 43.47889,32.959473 0.0269,3.98864 0.53133,3.786041 -10.11833,4.064315 -4.98214,0.130183 -6.20136,0.533393 -6.21292,2.054689 -0.0274,3.611461 -1.53001,3.36016 -6.38026,-1.067068 z m 7.82149,-16.322022 2.38326,-2.535769 -6.41309,-0.07262 c -3.5272,-0.03994 -9.17721,-0.614196 -12.55557,-1.276124 -6.01287,-1.178111 -8.83783,-3.300705 -13.33323,-10.018218 -1.25617,-1.877103 -1.3581,-1.571912 -0.78517,2.350892 0.36212,2.479419 0.95234,5.522342 1.3116,6.762052 0.65294,2.253132 0.65221,2.253133 -1.8655,0.003 l -2.5187,-2.250867 0.39665,2.814424 c 0.26811,1.902321 1.12714,2.83503 2.65067,2.878004 1.23971,0.03497 3.42378,0.702092 4.85348,1.4825 2.21788,1.210634 3.18333,1.07444 6.57684,-0.927785 l 3.97738,-2.346709 3.37095,2.836474 c 4.19156,3.526958 8.80901,3.643145 11.95043,0.300702 z"
       id="path4306"
       inkscape:connector-curvature="0"
       transform="translate(144.45,151.34)" />
    <path
       style="fill:#fffd4a;fill-opacity:0.88194442"
       d="m 31.519868,166.64078 c -3.212661,-2.52708 -6.848899,-11.27247 -8.012859,-19.27145 l -0.758053,-5.2095 -4.890407,0.55122 c -6.315773,0.71188 -12.3108395,-1.30245 -14.1600539,-4.75773 -1.8890252,-3.52968 -0.8381684,-11.44397 2.3607694,-17.7796 3.5803797,-7.09109 9.8316485,-15.28025 12.2503075,-16.0479 1.963239,-0.62311 2.001645,-0.96363 0.511047,-4.531138 -2.203035,-5.272606 -2.043759,-11.078516 0.363691,-13.257228 1.086478,-0.983249 5.842136,-3.336035 10.568132,-5.228416 23.127696,-9.260778 38.507785,-7.343222 52.056444,6.490287 5.121671,5.22935 13.249542,17.564545 13.068207,19.832855 -0.05246,0.65632 -2.06795,2.88852 -4.478847,4.96045 l -4.38345,3.76714 -5.051845,-1.92932 c -10.848436,-4.14306 -13.721619,-0.2792 -15.311564,20.59101 -1.318214,17.30335 -2.691437,20.06453 -9.90704,19.9204 -4.235275,-0.0846 -4.693771,0.21695 -6.533589,4.29693 -4.036215,8.95073 -11.757943,12.26885 -17.69089,7.60199 z m 6.03196,-5.1143 c 1.21435,-1.4632 1.025292,-2.74219 -1.124492,-7.6073 -4.424479,-10.01291 -5.846042,-16.5928 -4.728746,-21.88761 1.299357,-6.1576 -0.237056,-5.19971 -2.550609,1.59019 -2.05653,6.03558 -2.366613,17.87303 -0.590555,22.54441 2.463588,6.47973 6.211593,8.7134 8.994402,5.36031 z m 21.412354,-15.73865 c 4.314899,-2.23132 4.236465,-3.25261 -0.181932,-2.36893 -2.325356,0.46507 -5.173335,-0.0357 -8.452564,-1.48627 -5.483669,-2.42568 -6.090512,-1.81991 -2.609759,2.60515 2.674806,3.40046 6.305317,3.80408 11.244255,1.25005 z M 19.767367,123.2766 c 2.050546,-13.10102 3.384763,-17.55588 6.578253,-21.96437 4.632238,-6.394618 0.758108,-4.264888 -6.082901,3.34396 -9.52743,10.5968 -11.7697955,25.74956 -3.637504,24.5804 1.771998,-0.25476 2.450663,-1.54204 3.142152,-5.95999 z m 25.717064,-8.15884 c 3.441042,-6.75703 5.590906,-9.28523 9.773569,-11.49352 5.559631,-2.93528 2.247471,-2.9162 -4.238845,0.0244 -8.771102,3.97644 -14.027556,10.67036 -11.125164,14.16753 1.837081,2.21355 3.497032,1.41231 5.59044,-2.69843 z m 37.090964,-13.98172 c -8.343756,-7.3047 -20.286154,-9.127632 -20.286154,-3.096552 0,2.375602 0.439447,2.491412 8.452564,2.227572 3.724503,-0.12263 6.972421,0.54735 9.579573,1.97607 5.84806,3.20475 6.700789,2.78593 2.254017,-1.10709 z M 45.994062,86.558486 c 7.146442,-2.861573 9.914752,-3.406001 15.75921,-3.099273 3.89944,0.20465 6.882552,0.0392 6.629137,-0.367673 -1.153528,-1.852047 -11.695499,-4.331611 -18.409275,-4.330024 -11.016047,0.0026 -19.577765,5.097114 -15.937511,9.483352 1.940759,2.338471 1.888414,2.345852 11.958439,-1.686382 z"
       id="path4308"
       inkscape:connector-curvature="0"
       transform="translate(144.45,151.34)" />
    <path
       style="fill:#fffd4a;fill-opacity:0.88194442"
       d="m 183.54285,102.34048 c -7.85872,-9.339565 -0.27721,-25.528632 22.39058,-47.8114 10.5268,-10.347998 21.59128,-17.792907 35.24161,-23.712891 7.79208,-3.37933 10.45164,-3.09572 10.45164,1.114542 0,1.556547 0.77053,4.755818 1.71228,7.109491 1.50625,3.764489 1.51724,4.927461 0.0913,9.665358 -0.89151,2.962275 -3.77421,8.780903 -6.406,12.930283 -2.63179,4.149381 -5.49179,8.712682 -6.35556,10.140668 -2.26008,3.736373 -4.35368,4.154898 -9.40031,1.879184 -2.4524,-1.10588 -4.70316,-1.766444 -5.00169,-1.467918 -0.29853,0.298526 -1.25529,4.624173 -2.12615,9.612549 -2.3314,13.354574 -2.98057,14.21719 -10.0814,13.396073 -12.7256,-1.471548 -12.24046,-1.563374 -13.65141,2.583969 -2.85828,8.401662 -11.63549,10.774922 -16.86493,4.560092 z m 11.62958,-3.206546 c 1.27204,-0.805282 0.79513,-1.929236 -2.40488,-5.667734 -2.19537,-2.564791 -4.30009,-6.205823 -4.67716,-8.091185 -1.08531,-5.426524 -3.47377,-3.302402 -3.86492,3.437168 -0.42602,7.340384 1.80659,11.368647 6.28698,11.343487 1.69031,-0.009 3.7873,-0.469273 4.65998,-1.021736 z m 15.88194,-11.871556 c 0,-0.2824 -1.23129,-2.327858 -2.73619,-4.545464 -1.50491,-2.217606 -3.06667,-5.536628 -3.47058,-7.375605 -0.87296,-3.974571 -2.28271,-4.32759 -3.22597,-0.807826 -2.06872,7.719407 0.5281,13.24235 6.22639,13.24235 1.76349,0 3.20635,-0.231054 3.20635,-0.513455 z m 8.45257,-5.591175 c 0,-5.041294 -2.30007,-6.694046 -3.78711,-2.721292 -2.86221,7.646642 -2.8429,7.894321 0.58498,7.501945 2.91073,-0.333181 3.20213,-0.768222 3.20213,-4.780653 z m 17.46863,-18.259024 c 0,-0.383061 -1.49858,-2.403268 -3.33019,-4.489349 -1.8316,-2.08608 -3.94049,-5.829898 -4.68642,-8.319594 -0.74593,-2.489696 -1.72397,-4.52672 -2.17341,-4.52672 -2.30653,0 -3.04877,14.485625 -0.85466,16.679727 1.36776,1.36776 11.04468,1.942466 11.04468,0.655936 z"
       id="path4310"
       inkscape:connector-curvature="0"
       transform="translate(144.45,151.34)" />
    <path
       style="fill:#fffd4a;fill-opacity:0.88194442"
       d="m 291.81516,61.839207 c -4.90713,-3.996527 -11.06557,-6.723145 -15.22397,-6.740337 -3.34923,-0.01385 -9.38554,-3.884361 -11.03627,-7.076525 -1.37862,-2.665958 -1.48151,-3.975833 -0.48424,-6.164605 0.69649,-1.528634 1.58049,-5.784881 1.96444,-9.458328 0.38395,-3.673446 1.00457,-6.847898 1.37914,-7.054336 1.78367,-0.983018 17.31463,3.263248 24.34824,6.656967 13.79101,6.654173 21.70285,15.501149 22.27403,24.906721 l 0.26614,4.382368 -7.727,0.335973 c -6.55837,0.285161 -7.814,0.66867 -8.30226,2.53577 -0.76869,2.939482 -1.13666,2.824838 -7.45825,-2.323668 z m 9.2409,-15.029939 2.48792,-2.648275 -10.08272,-0.653231 c -11.45932,-0.742416 -15.30076,-2.322078 -20.4177,-8.39607 l -3.58017,-4.249792 0.80203,6.171651 c 0.74776,5.754116 0.67081,6.06275 -1.13754,4.56196 -1.74785,-1.450592 -1.90101,-1.352452 -1.54957,0.992922 0.2872,1.916626 1.64835,3.026129 5.16411,4.209403 4.19582,1.412151 5.17879,1.397523 8.11485,-0.120771 4.33523,-2.241837 5.33724,-2.181756 8.78018,0.526459 3.83768,3.01872 8.35894,2.862611 11.41861,-0.394256 z"
       id="path4312"
       inkscape:connector-curvature="0"
       transform="translate(144.45,151.34)" />
    <path
       style="fill:#fffd4a;fill-opacity:0.88194442"
       d="m 184.52165,103.23501 c -4.53712,-3.902662 -4.9979,-11.160315 -1.23096,-19.388417 4.94434,-10.799842 18.38911,-26.674462 31.51302,-37.208299 9.25676,-7.429894 27.8584,-17.448261 33.07836,-17.815167 2.73904,-0.192524 3.14788,0.260605 3.87317,4.29279 0.44599,2.479419 1.35114,5.911788 2.01146,7.627486 0.91508,2.377691 0.79088,4.326139 -0.52233,8.194124 -2.05556,6.0545 -12.8974,24.155663 -15.4221,25.748203 -1.26653,0.798911 -3.11138,0.522317 -6.39633,-0.958987 -2.53903,-1.144946 -4.8822,-1.815949 -5.20703,-1.491118 -0.32483,0.324831 -1.09796,3.827475 -1.71806,7.783653 -2.39995,15.311425 -4.21148,17.123852 -14.69638,14.703647 -6.55129,-1.512219 -8.45889,-0.941797 -9.4008,2.811089 -1.89848,7.564126 -10.23645,10.557116 -15.88202,5.700996 z m 10.67104,-4.113596 c 1.30788,-0.827727 0.96303,-1.750374 -1.85296,-4.957617 -1.90295,-2.16734 -4.06008,-5.759156 -4.79363,-7.981813 -0.73354,-2.222656 -1.74727,-4.041194 -2.25274,-4.041194 -2.72915,0 -3.13447,11.812913 -0.53277,15.527354 1.82937,2.611796 6.47139,3.327026 9.4321,1.45327 z m 15.86168,-11.859036 c 0,-0.2824 -1.23129,-2.327858 -2.73619,-4.545464 -1.50491,-2.217606 -3.06667,-5.536628 -3.47058,-7.375605 -0.87296,-3.974571 -2.28271,-4.32759 -3.22597,-0.807826 -2.06872,7.719407 0.5281,13.24235 6.22639,13.24235 1.76349,0 3.20635,-0.231054 3.20635,-0.513455 z m 8.82449,-3.238463 c 0.54772,-2.886223 -0.75336,-7.518167 -2.1118,-7.518167 -1.08321,0 -2.05616,1.945151 -3.84753,7.692091 -0.7369,2.36406 -0.50438,2.584677 2.37564,2.254017 2.01674,-0.231546 3.33656,-1.125722 3.58369,-2.427941 z m 17.09671,-20.611736 c 0,-0.383061 -1.49858,-2.403268 -3.33019,-4.489349 -1.8316,-2.08608 -3.94049,-5.829898 -4.68642,-8.319594 -0.74593,-2.489696 -1.72397,-4.52672 -2.17341,-4.52672 -2.30653,0 -3.04877,14.485625 -0.85466,16.679727 1.36776,1.36776 11.04468,1.942466 11.04468,0.655936 z"
       id="path4314"
       inkscape:connector-curvature="0"
       transform="translate(144.45,151.34)" />
    <path
       style="fill:#ff4a55;fill-opacity:0.88194442"
       d=""
       id="path4316"
       inkscape:connector-curvature="0"
       transform="translate(144.45,151.34)" />
    <path
       style="fill:#ff4a55;fill-opacity:0.88194442"
       d="m 155.76968,278.14684 -7.32315,-14.69553 -8.98664,12.99624 c -4.94264,7.14794 -9.25603,13.01123 -9.5853,13.02953 -0.32926,0.0183 -2.31247,-6.59492 -4.40713,-14.69606 l -3.80848,-14.72935 -9.84633,9.80071 -9.84633,9.80071 -0.77906,-11.13123 c -0.42848,-6.12218 -1.11457,-12.52361 -1.524648,-14.22541 l -0.745593,-3.09418 -10.041651,5.62995 c -5.522907,3.09647 -10.214081,5.62994 -10.424829,5.62994 -0.210748,0 -0.383178,-4.56438 -0.383178,-10.14307 0,-11.37992 0.420711,-10.98551 -9.016069,-8.45257 -3.409201,0.91507 -6.325336,1.66978 -6.480299,1.67714 -0.154964,0.007 -0.281752,-3.09551 -0.281752,-6.89525 l 0,-6.90862 -5.046962,0.56887 c -4.954162,0.5584 -5.059571,0.50165 -5.732773,-3.08683 -1.046052,-5.57594 -0.217119,-8.58047 3.034491,-10.99875 l 2.961337,-2.2024 7.18174,7.1742 c 13.928403,13.91378 32.510851,23.89934 55.027796,29.57 60.21779,15.16526 120.65947,-5.977 151.99114,-53.16591 5.79744,-8.73158 12.34329,-11.46478 17.98819,-7.51094 1.73562,1.21568 2.50479,2.90679 2.50479,5.50708 0,3.61712 -0.19335,3.78056 -5.35329,4.52501 -2.94431,0.42479 -6.45183,1.03382 -7.79449,1.35341 l -2.44119,0.58107 2.0437,5.81835 c 1.12405,3.2001 2.37769,6.63825 2.78587,7.64033 0.63835,1.56717 -0.68521,1.93364 -9.46384,2.62038 -5.6133,0.43912 -10.20599,1.03779 -10.20599,1.33038 0,0.2926 2.08817,4.33673 4.64037,8.98697 2.5522,4.65024 4.35187,8.74347 3.99928,9.09606 -0.35259,0.35259 -5.23361,-0.76771 -10.84671,-2.48956 -5.6131,-1.72185 -10.53093,-2.80533 -10.92853,-2.40774 -0.39759,0.39759 -0.12378,6.63226 0.60846,13.85483 0.73223,7.22256 1.17847,13.2848 0.99163,13.47163 -0.18683,0.18684 -5.06209,-3.22141 -10.83391,-7.57389 -5.77183,-4.35247 -10.78531,-7.6225 -11.14109,-7.26672 -0.35577,0.35578 -0.892,8.28371 -1.19159,17.61762 l -0.54474,16.97076 -11.81929,-12.49579 c -6.50062,-6.87268 -11.96372,-12.34769 -12.14023,-12.16669 -0.17651,0.18101 -1.38869,7.64808 -2.69372,16.5935 -1.30504,8.94542 -2.50716,16.39876 -2.67139,16.56299 -0.16422,0.16422 -4.56229,-6.2739 -9.77346,-14.30695 -5.21119,-8.03304 -9.83026,-14.2185 -10.26458,-13.74546 -0.43433,0.47304 -3.42656,7.19949 -6.6494,14.94768 -3.22283,7.74818 -6.21033,14.45694 -6.63886,14.90834 -0.42853,0.45141 -4.07458,-5.79224 -8.10232,-13.87478 z"
       id="path4318"
       inkscape:connector-curvature="0"
       transform="translate(144.45,151.34)" />
    <path
       style="fill:#ff8080;fill-opacity:0.88194442"
       d="m 221.71961,217.78687 c -8.80337,-9.05282 -11.7349,-13.03551 -17.92938,-24.35834 -2.37336,-4.33824 -4.74914,-8.32638 -5.2795,-8.86255 -0.91332,-0.92329 -1.39613,-0.80062 -9.13076,2.31996 -12.6965,5.12246 -16.84654,6.44519 -17.78307,5.66794 -1.34402,-1.11543 -7.57026,-21.82054 -7.57026,-25.17456 0,-0.9 0.47144,-1.48653 1.51318,-1.8826 2.24508,-0.85358 9.38641,-8.37396 12.54176,-13.20748 3.75207,-5.7476 5.1073,-10.09741 5.57132,-17.88206 0.81571,-13.68455 -0.46908,-20.72201 -6.10626,-33.44715 l -3.37906,-7.62775 1.69887,-2.469223 c 0.93438,-1.358072 1.89813,-2.592372 2.14168,-2.742889 0.24354,-0.150517 0.43044,2.055343 0.41533,4.901912 -0.0243,4.580253 0.15717,5.551585 1.57768,8.44446 2.08711,4.25043 4.84094,6.15478 9.37444,6.48271 4.19559,0.30348 6.84513,-0.59311 8.9977,-3.04475 1.87845,-2.13942 4.15858,-6.37592 4.74703,-8.819983 0.44455,-1.846403 1.56022,-1.969539 3.74561,-0.413403 4.48616,3.19443 8.98075,4.102612 12.67165,2.560454 3.60278,-1.505338 5.34925,-5.88056 6.8617,-17.18978 0.52038,-3.891148 0.994,-7.14795 1.05249,-7.237339 0.0585,-0.08939 1.44774,0.671342 3.08724,1.690513 5.65339,3.514337 9.0696,2.348927 12.66785,-4.321525 0.92546,-1.715625 1.81618,-3.120204 1.97939,-3.121288 0.1632,-0.0011 2.382,4.545398 4.93066,10.103293 4.9754,10.849901 5.44466,12.942765 3.46602,15.458189 -1.60597,2.041664 -3.00229,1.861044 -4.85788,-0.628387 -0.86631,-1.162228 -1.83012,-2.299441 -2.14182,-2.527141 -1.0207,-0.745656 -3.9224,-0.426549 -5.15952,0.567406 -1.88459,1.514154 -4.87595,6.608367 -7.68593,13.088941 -5.04458,11.63419 -5.00803,11.44375 -5.51536,28.73872 -0.65137,22.2055 -1.21442,23.78516 -13.0127,36.50752 -1.80686,1.94839 -3.28521,3.77239 -3.28521,4.05334 0,0.28095 1.39887,2.15973 3.1086,4.17506 5.81188,6.85071 16.58245,13.7542 30.00087,19.22929 l 5.21599,2.12828 -1.10352,1.74965 c -5.85271,9.27956 -17.74425,25.13507 -18.85117,25.13507 -0.41404,0 -4.27309,-3.62003 -8.57566,-8.04451 z"
       id="path4322"
       inkscape:connector-curvature="0"
       transform="translate(144.45,151.34)" />
    <path
       style="fill:#ff8080;fill-opacity:0.88194442"
       d="m 101.75942,234.03172 c -10.890599,-2.3963 -15.316217,-3.54073 -17.131569,-4.4301 -1.268714,-0.62156 -1.449356,-1.03864 -1.353758,-3.1256 0.263732,-5.75743 11.404761,-23.89196 21.786437,-35.46233 1.74855,-1.94876 3.17919,-3.69021 3.17919,-3.86989 0,-0.17968 -2.80441,-3.24386 -6.23201,-6.80929 -7.532186,-7.83507 -11.071766,-12.70144 -14.657215,-20.15138 -3.629994,-7.5425 -5.018934,-12.74664 -5.420864,-20.31112 -0.740544,-13.93732 3.407832,-23.81765 12.455356,-29.66535 3.184543,-2.05827 9.441343,-4.38319 13.995603,-5.20053 l 2.11314,-0.37924 0,9.01274 c 0,20.17357 3.74578,33.78806 11.64303,42.31803 5.20635,5.62348 12.83535,10.24087 20.37012,12.32887 5.46351,1.51401 6.17052,1.9959 6.93362,4.72591 1.91615,6.85498 4.81047,21.6 4.33961,22.10796 -0.82213,0.88689 -15.60529,0.47827 -22.48511,-0.62152 l -6.15066,-0.98323 -1.43278,1.34603 c -1.95674,1.83827 -4.57373,7.38446 -5.57283,11.81055 -0.94912,4.20463 -1.99561,15.29312 -2.00414,21.23561 -0.006,4.13263 -0.67666,6.86354 -1.87246,7.62389 -1.15388,0.7337 -3.78639,0.41787 -12.50271,-1.50001 z"
       id="path4324"
       inkscape:connector-curvature="0"
       transform="translate(144.45,151.34)" />
    <path
       style="fill:#ff8080;fill-opacity:0.88194442"
       d="m 275.10672,131.4341 c -11.26734,-3.15481 -20.88985,-13.01418 -22.67808,-23.2363 -0.78115,-4.46528 -0.43189,-5.79898 1.87551,-7.16199 1.50676,-0.89007 2.75449,-1.070913 6.66616,-0.9662 4.74054,0.12691 4.83735,0.10229 6.48115,-1.648755 3.89463,-4.148707 12.75303,-6.32276 32.00955,-7.855873 4.29035,-0.341578 7.92773,-0.493963 8.08306,-0.338634 0.48326,0.483266 -1.00801,10.538082 -2.35329,15.866842 -4.59234,18.19071 -17.32277,28.91401 -30.08406,25.34091 z"
       id="path4326"
       inkscape:connector-curvature="0"
       transform="translate(144.45,151.34)" />
    <path
       style="fill:#ff8080;fill-opacity:0.88194442"
       d="m 264.52956,85.039254 c -1.14395,-1.227885 -10.86143,-20.439219 -12.06013,-23.842716 -0.62343,-1.770126 -0.59141,-2.418583 0.225,-4.556319 1.62788,-4.262538 4.02428,-7.563104 5.72767,-7.888727 2.43089,-0.464695 5.11409,0.562688 8.00567,3.065338 3.3129,2.867298 5.14382,3.646333 10.39236,4.421833 7.05926,1.043044 9.06761,1.956564 13.8409,6.295683 2.4092,2.190065 5.41502,4.426391 6.67961,4.969614 2.2532,0.967896 3.56486,2.991894 4.98992,7.699854 0.45826,1.513957 -0.36631,1.777349 -12.02008,3.839573 -4.94625,0.875276 -10.99372,2.432111 -15.49637,3.989321 -4.06144,1.404619 -7.79809,2.687101 -8.30368,2.849961 -0.5095,0.16412 -1.39246,-0.211829 -1.98087,-0.843415 z m 10.0848,-12.02893 c 1.45546,-1.683249 1.2496,-4.560555 -0.47272,-6.607423 -1.17401,-1.395223 -1.89191,-1.733748 -3.67673,-1.733748 -1.89956,0 -2.30328,0.222406 -2.81298,1.549637 -0.92787,2.416152 -0.20987,5.28665 1.76836,7.069742 1.94857,1.756356 3.50701,1.672882 5.19407,-0.278208 z"
       id="path4328"
       inkscape:connector-curvature="0"
       transform="translate(144.45,151.34)" />
    <path
       style="fill:#ff8080;fill-opacity:0.88194442"
       d="m 257.07288,41.013055 c -1.04732,-0.254123 -2.11443,-0.802151 -2.37134,-1.217841 -0.89302,-1.444948 -1.35934,-7.017208 -1.33729,-15.980122 0.0188,-7.644819 0.20993,-9.623697 1.2567,-13.011268 1.78932,-5.7906285 4.74446,-9.1050478 6.68336,-7.4959078 3.63303,3.0151502 5.94107,17.0910858 4.71102,28.7308608 -0.98153,9.288008 -0.95365,9.226858 -4.25868,9.340633 -1.52874,0.05263 -3.63644,-0.112233 -4.68377,-0.366355 z"
       id="path4330"
       inkscape:connector-curvature="0"
       transform="translate(144.45,151.34)" />
    <path
       style="fill:#ff8080;fill-opacity:0.88194442"
       d="m 282.08079,26.567999 c -4.32561,-1.276367 -5.9168,-1.988045 -5.9168,-2.646354 0,-0.871993 5.36691,-5.750335 9.27467,-8.430359 2.49651,-1.712163 3.93754,-2.313145 5.61764,-2.342838 2.97127,-0.05251 3.11367,0.789439 1.15298,6.816868 -2.5111,7.719437 -3.70537,8.49797 -10.12849,6.602683 z"
       id="path4332"
       inkscape:connector-curvature="0"
       transform="translate(144.45,151.34)" />
    <path
       style="fill:#ff8080;fill-opacity:0.88194442"
       d="m 266.30267,134.01677 c -4.05712,-0.9877 -7.58591,-4.00384 -9.78556,-8.36394 -2.30441,-4.56775 -2.04084,-5.02448 0.98742,-1.71108 3.57012,3.90628 8.01453,6.91777 13.2714,8.99257 l 3.9793,1.57057 -3.38102,-0.0383 c -1.85957,-0.0211 -4.14176,-0.22349 -5.07154,-0.44984 z"
       id="path4338"
       inkscape:connector-curvature="0"
       transform="translate(144.45,151.34)" />
  </g>
  <metadata
     id="metadata3488">
    <rdf:RDF>
      <cc:Work>
        <dc:format>image/svg+xml</dc:format>
        <dc:type
           rdf:resource="http://purl.org/dc/dcmitype/StillImage" />
        <cc:license
           rdf:resource="http://creativecommons.org/licenses/publicdomain/" />
        <dc:publisher>
          <cc:Agent
             rdf:about="http://openclipart.org/">
            <dc:title>Openclipart</dc:title>
          </cc:Agent>
        </dc:publisher>
        <dc:title>Toy Horse</dc:title>
        <dc:date>2013-03-24T16:10:40</dc:date>
        <dc:description>A little toy horse.</dc:description>
        <dc:source>https://openclipart.org/detail/176518/toy-horse-by-azex-176518</dc:source>
        <dc:creator>
          <cc:Agent>
            <dc:title>azex</dc:title>
          </cc:Agent>
        </dc:creator>
        <dc:subject>
          <rdf:Bag>
            <rdf:li>CMYK</rdf:li>
            <rdf:li>childhood</rdf:li>
            <rdf:li>children</rdf:li>
            <rdf:li>horse</rdf:li>
            <rdf:li>toy</rdf:li>
          </rdf:Bag>
        </dc:subject>
      </cc:Work>
      <cc:License
         rdf:about="http://creativecommons.org/licenses/publicdomain/">
        <cc:permits
           rdf:resource="http://creativecommons.org/ns#Reproduction" />
        <cc:permits
           rdf:resource="http://creativecommons.org/ns#Distribution" />
        <cc:permits
           rdf:resource="http://creativecommons.org/ns#DerivativeWorks" />
      </cc:License>
    </rdf:RDF>
  </metadata>
</svg>
